<svg width="183" height="106" viewBox="0 0 183 106" fill="none" xmlns="http://www.w3.org/2000/svg">
<path d="M37.1664 42C35.4597 41.36 34.1397 40.7867 33.2064 40.28C32.2997 39.7467 31.8464 39.2667 31.8464 38.84C31.8464 38.4667 31.8864 37.8933 31.9664 37.12C32.0731 36.32 32.1264 35.5467 32.1264 34.8V29.68C32.1264 29.1467 32.1397 28.48 32.1664 27.68C32.2197 26.88 32.3131 26.2 32.4464 25.64H30.9664L28.8864 22.88L29.1664 22.24H32.9264C33.0331 22.24 33.2597 22.4267 33.6064 22.8C33.9797 23.1467 34.3531 23.5467 34.7264 24C35.2331 23.3067 35.8597 22.8 36.6064 22.48C37.3797 22.1333 38.1264 21.96 38.8464 21.96H39.6864C40.2197 21.96 40.8064 22.1733 41.4464 22.6C42.1131 23.0267 42.7531 23.5467 43.3664 24.16C44.0064 24.7733 44.5264 25.3867 44.9264 26C45.3264 26.5867 45.5264 27.0667 45.5264 27.44C45.5264 28.1067 45.4997 28.9333 45.4464 29.92C45.3931 30.9067 45.3664 31.7067 45.3664 32.32V35.24C45.3664 36.2 45.3264 37.0533 45.2464 37.8C45.1664 38.52 45.1264 39.0667 45.1264 39.44C45.1264 39.7067 45.2197 39.92 45.4064 40.08C45.6197 40.2133 46.1264 40.4933 46.9264 40.92L46.4464 42C44.7397 41.36 43.4197 40.7867 42.4864 40.28C41.5797 39.7467 41.1264 39.2667 41.1264 38.84C41.1264 38.4667 41.1664 37.8933 41.2464 37.12C41.3531 36.32 41.4064 35.5467 41.4064 34.8V32.72C41.4064 31.8667 41.4331 30.8933 41.4864 29.8C41.5397 28.7067 41.5664 27.7467 41.5664 26.92C41.5664 26.3867 41.4997 26.0267 41.3664 25.84C41.2331 25.6533 40.9397 25.56 40.4864 25.56C38.9931 25.56 37.8864 25.9467 37.1664 26.72C36.4464 27.4667 36.0864 28.5067 36.0864 29.84V35.24C36.0864 36.2 36.0464 37.0533 35.9664 37.8C35.8864 38.52 35.8464 39.0667 35.8464 39.44C35.8464 39.7067 35.9397 39.92 36.1264 40.08C36.3397 40.2133 36.8464 40.4933 37.6464 40.92L37.1664 42ZM57.0142 41.8C56.3742 41.8 55.6009 41.64 54.6942 41.32C53.7876 41 52.9076 40.5733 52.0542 40.04C51.2009 39.5067 50.4809 38.8933 49.8942 38.2C49.3342 37.5067 49.0542 36.8 49.0542 36.08C49.0542 35.76 49.0942 34.8267 49.1742 33.28C49.2809 31.7333 49.3342 29.8 49.3342 27.48C49.3342 25.6133 49.8809 24.24 50.9742 23.36C52.0676 22.48 53.7076 22.04 55.8942 22.04C56.5342 22.04 57.2409 22.24 58.0142 22.64C58.8142 23.04 59.5742 23.56 60.2942 24.2C61.0142 24.84 61.6009 25.52 62.0542 26.24C62.5342 26.9333 62.7742 27.5867 62.7742 28.2C62.7742 29.2133 62.7476 30.3067 62.6942 31.48C62.6676 32.6533 62.6542 34.16 62.6542 36C62.6542 37.7067 62.1876 39.1067 61.2542 40.2C60.3209 41.2667 58.9076 41.8 57.0142 41.8ZM54.4542 38.4C55.9209 38.4 56.9876 38.0933 57.6542 37.48C58.3476 36.8667 58.6942 35.96 58.6942 34.76C58.6942 33.9067 58.7076 32.9467 58.7342 31.88C58.7609 30.7867 58.7876 29.7867 58.8142 28.88C58.8409 27.9467 58.8542 27.2933 58.8542 26.92C58.8542 26.4667 58.7742 26.1333 58.6142 25.92C58.4542 25.68 58.1342 25.56 57.6542 25.56C56.2142 25.56 55.1076 25.8133 54.3342 26.32C53.5876 26.8 53.2142 27.72 53.2142 29.08C53.2142 31.64 53.1876 33.5733 53.1342 34.88C53.0809 36.16 53.0542 37.0267 53.0542 37.48C53.0542 38.0933 53.5209 38.4 54.4542 38.4ZM73.6939 41.8C73.0539 41.8 72.2806 41.64 71.3739 41.32C70.4672 41 69.5872 40.5733 68.7339 40.04C67.8806 39.5067 67.1606 38.8933 66.5739 38.2C66.0139 37.5067 65.7339 36.8 65.7339 36.08C65.7339 35.76 65.7739 34.8267 65.8539 33.28C65.9606 31.7333 66.0139 29.8 66.0139 27.48C66.0139 25.6133 66.5606 24.24 67.6539 23.36C68.7472 22.48 70.3872 22.04 72.5739 22.04C73.2139 22.04 73.9206 22.24 74.6939 22.64C75.4939 23.04 76.2539 23.56 76.9739 24.2C77.6939 24.84 78.2806 25.52 78.7339 26.24C79.2139 26.9333 79.4539 27.5867 79.4539 28.2C79.4539 29.2133 79.4272 30.3067 79.3739 31.48C79.3472 32.6533 79.3339 34.16 79.3339 36C79.3339 37.7067 78.8672 39.1067 77.9339 40.2C77.0006 41.2667 75.5872 41.8 73.6939 41.8ZM71.1339 38.4C72.6006 38.4 73.6672 38.0933 74.3339 37.48C75.0272 36.8667 75.3739 35.96 75.3739 34.76C75.3739 33.9067 75.3872 32.9467 75.4139 31.88C75.4406 30.7867 75.4672 29.7867 75.4939 28.88C75.5206 27.9467 75.5339 27.2933 75.5339 26.92C75.5339 26.4667 75.4539 26.1333 75.2939 25.92C75.1339 25.68 74.8139 25.56 74.3339 25.56C72.8939 25.56 71.7872 25.8133 71.0139 26.32C70.2672 26.8 69.8939 27.72 69.8939 29.08C69.8939 31.64 69.8672 33.5733 69.8139 34.88C69.7606 36.16 69.7339 37.0267 69.7339 37.48C69.7339 38.0933 70.2006 38.4 71.1339 38.4ZM90.7336 41.8C90.4403 41.8 89.9736 41.72 89.3336 41.56C88.7203 41.4 88.0403 41.1867 87.2936 40.92C86.5469 40.6267 85.8269 40.2933 85.1336 39.92C84.4403 39.5467 83.8669 39.1467 83.4136 38.72C82.9869 38.2933 82.7736 37.8667 82.7736 37.44C82.7736 36.6133 82.8136 35.72 82.8936 34.76C82.9736 33.7733 83.0269 32.4667 83.0536 30.84V24.12C83.0536 22.52 83.1069 21.0533 83.2136 19.72C83.3469 18.36 83.5069 17.2667 83.6936 16.44H81.9736L79.7736 13.84L80.0536 13.2H85.2536L87.6136 16.24C87.4269 17.1733 87.2803 18.2267 87.1736 19.4C87.0936 20.5467 87.0403 21.7333 87.0136 22.96C87.4136 22.6933 87.8936 22.4667 88.4536 22.28C89.0403 22.0667 89.6669 21.96 90.3336 21.96C90.8669 21.96 91.4803 22.2 92.1736 22.68C92.8936 23.1333 93.5869 23.7067 94.2536 24.4C94.9469 25.0667 95.5069 25.7467 95.9336 26.44C96.3869 27.1067 96.6136 27.6667 96.6136 28.12C96.6136 28.52 96.6003 29.1333 96.5736 29.96C96.5736 30.76 96.5603 31.68 96.5336 32.72C96.5069 33.76 96.4936 34.8267 96.4936 35.92C96.4936 37.68 96.0003 39.1067 95.0136 40.2C94.0536 41.2667 92.6269 41.8 90.7336 41.8ZM86.8536 37.56C86.8536 38.12 87.2803 38.4 88.1336 38.4C89.4669 38.4 90.5336 38.1333 91.3336 37.6C92.1336 37.0667 92.5336 36.0133 92.5336 34.44C92.5336 32.8667 92.5603 31.4267 92.6136 30.12C92.6669 28.7867 92.6936 27.6933 92.6936 26.84C92.6936 26.3867 92.5869 26.0667 92.3736 25.88C92.1869 25.6667 91.7736 25.56 91.1336 25.56C89.6136 25.56 88.5469 25.8667 87.9336 26.48C87.3203 27.0667 87.0136 28.0667 87.0136 29.48V31.84C87.0136 33.1467 86.9869 34.36 86.9336 35.48C86.8803 36.5733 86.8536 37.2667 86.8536 37.56ZM107.282 41.44C106.135 41.44 105.029 41.3467 103.962 41.16C102.922 40.9467 102.055 40.6933 101.362 40.4C100.695 40.08 100.362 39.7733 100.362 39.48C100.362 38.7867 100.429 37.7467 100.562 36.36C100.722 34.9733 100.802 33.24 100.802 31.16V26.64C100.802 24.88 100.869 23.4533 101.002 22.36C101.162 21.24 101.322 20.3733 101.482 19.76H100.122L98.122 17.08L98.442 16.44H101.802C102.975 16.44 104.082 16.4267 105.122 16.4C106.162 16.3733 107.029 16.36 107.722 16.36C108.442 16.36 109.215 16.6 110.042 17.08C110.895 17.5333 111.682 18.12 112.402 18.84C113.149 19.5333 113.749 20.2667 114.202 21.04C114.682 21.8133 114.922 22.52 114.922 23.16C114.922 24.7867 114.882 26.4533 114.802 28.16C114.749 29.8667 114.722 31.7067 114.722 33.68C114.722 35.84 114.415 37.48 113.802 38.6C113.189 39.72 112.322 40.48 111.202 40.88C110.109 41.2533 108.802 41.44 107.282 41.44ZM109.042 19.92C108.402 19.92 107.802 19.9467 107.242 20C106.709 20.0267 106.135 20.1067 105.522 20.24C105.335 20.9333 105.175 21.8 105.042 22.84C104.909 23.8533 104.842 25.0267 104.842 26.36V32.16C104.842 33.68 104.815 34.9067 104.762 35.84C104.735 36.7733 104.669 37.56 104.562 38.2C104.882 38.28 105.269 38.32 105.722 38.32C107.322 38.32 108.535 37.8533 109.362 36.92C110.189 35.96 110.602 34.3067 110.602 31.96C110.602 30.6 110.629 29.2667 110.682 27.96C110.735 26.6267 110.775 25.4267 110.802 24.36C110.855 23.2933 110.882 22.48 110.882 21.92C110.882 21.2267 110.735 20.72 110.442 20.4C110.175 20.08 109.709 19.92 109.042 19.92ZM126.164 41.72C125.524 41.72 124.738 41.56 123.804 41.24C122.871 40.8933 121.938 40.4533 121.004 39.92C120.098 39.36 119.338 38.76 118.724 38.12C118.111 37.4533 117.804 36.8 117.804 36.16C117.804 35.52 117.844 34.4133 117.924 32.84C118.031 31.2667 118.084 29.3867 118.084 27.2C118.084 23.7333 119.978 22 123.764 22C124.351 22 125.031 22.1867 125.804 22.56C126.578 22.9067 127.324 23.3733 128.044 23.96C128.764 24.52 129.364 25.1067 129.844 25.72C130.324 26.3333 130.564 26.9067 130.564 27.44V30.72C130.564 32.88 129.364 33.96 126.964 33.96C126.218 33.96 125.364 33.92 124.404 33.84C123.444 33.7333 122.591 33.6133 121.844 33.48C121.818 34.36 121.791 35.16 121.764 35.88C121.764 36.5733 121.764 36.9733 121.764 37.08C121.764 37.5067 121.871 37.8133 122.084 38C122.298 38.1867 122.684 38.28 123.244 38.28C124.071 38.28 124.964 38.16 125.924 37.92C126.911 37.6533 127.791 37.2667 128.564 36.76H129.164L131.324 40.04C130.818 40.52 130.058 40.92 129.044 41.24C128.058 41.56 127.098 41.72 126.164 41.72ZM121.964 28.48C121.964 28.6933 121.951 29.0133 121.924 29.44C121.924 29.8667 121.924 30.3467 121.924 30.88C122.698 30.96 123.591 31 124.604 31C125.378 31 125.911 30.8133 126.204 30.44C126.524 30.04 126.684 29.44 126.684 28.64V26.48C126.684 26.1867 126.604 25.9333 126.444 25.72C126.284 25.5067 125.938 25.4 125.404 25.4C124.338 25.4 123.498 25.6267 122.884 26.08C122.271 26.5067 121.964 27.3067 121.964 28.48ZM141.146 42.08C140.853 42.08 140.426 41.8933 139.866 41.52C139.333 41.12 138.773 40.64 138.186 40.08C137.6 39.52 137.08 39 136.626 38.52C136.2 38.0133 135.96 37.64 135.906 37.4C135.32 35.0267 134.84 33.1333 134.466 31.72C134.093 30.28 133.813 29.1733 133.626 28.4C133.466 27.6 133.386 26.9867 133.386 26.56C133.386 26.24 133.426 25.9333 133.506 25.64H132.586L130.626 22.88L130.946 22.24H136.026L137.866 24.92V25.44C137.28 25.5467 136.88 25.7733 136.666 26.12C136.453 26.4667 136.346 26.9067 136.346 27.44C136.346 27.7333 136.413 28.2133 136.546 28.88C136.68 29.52 136.933 30.5467 137.306 31.96C137.68 33.3467 138.226 35.2933 138.946 37.8C139.32 36.84 139.693 35.8667 140.066 34.88C140.44 33.8667 140.88 32.64 141.386 31.2C141.893 29.7333 142.533 27.88 143.306 25.64H141.546L139.706 22.88L139.986 22.24H144.986L147.426 25.6C146.306 28.9333 145.373 31.68 144.626 33.84C143.88 35.9733 143.28 37.64 142.826 38.84C142.373 40.04 142.013 40.88 141.746 41.36C141.506 41.84 141.306 42.08 141.146 42.08ZM10.1427 94.96C8.38266 94.3733 7.04932 93.8267 6.14266 93.32C5.23599 92.8133 4.78266 92.4 4.78266 92.08C4.78266 91.7867 4.80932 91.48 4.86266 91.16C4.91599 90.84 4.96932 90.3733 5.02266 89.76C5.07599 89.1467 5.10266 88.2667 5.10266 87.12V79.64C5.10266 77.88 5.16932 76.4533 5.30266 75.36C5.46266 74.24 5.62266 73.3733 5.78266 72.76H4.42266L2.42266 70.08L2.74266 69.44H15.4627L17.4227 72.24L15.3827 74.04H14.5827C14.316 73.64 13.9827 73.3333 13.5827 73.12C13.2093 72.88 12.716 72.76 12.1027 72.76H9.94266C9.75599 73.48 9.56932 74.3867 9.38266 75.48C9.22266 76.5733 9.14266 77.8667 9.14266 79.36V80.4H14.7027L16.4227 83.16L16.1427 83.84H9.14266V88C9.14266 89.1467 9.10266 90.0667 9.02266 90.76C8.96932 91.4267 8.94266 91.9467 8.94266 92.32C8.94266 92.7733 9.51599 93.2667 10.6627 93.8L10.1427 94.96ZM22.0533 72.56L19.4133 69.72V69.32C20.1333 68.36 21.1066 67.52 22.3333 66.8L24.9733 69.56L24.9333 70.04C24.3999 70.4133 23.8933 70.8267 23.4133 71.28C22.9599 71.7333 22.5066 72.16 22.0533 72.56ZM25.6133 95.08C23.9066 94.44 22.5866 93.8667 21.6533 93.36C20.7466 92.8267 20.2933 92.3467 20.2933 91.92C20.2933 91.5467 20.3333 90.9733 20.4133 90.2C20.5199 89.4 20.5733 88.6267 20.5733 87.88V82.16C20.5733 81.4667 20.5999 80.8267 20.6533 80.24C20.7333 79.6267 20.8533 79.0933 21.0133 78.64H19.6933L17.5733 75.92L17.8533 75.24H22.9733L25.2933 78.36C24.9733 78.7867 24.7599 79.32 24.6533 79.96C24.5733 80.6 24.5333 81.4133 24.5333 82.4V88.32C24.5333 89.28 24.4933 90.1333 24.4133 90.88C24.3333 91.6 24.2933 92.1467 24.2933 92.52C24.2933 92.7867 24.3866 93 24.5733 93.16C24.7866 93.2933 25.2933 93.5733 26.0933 94L25.6133 95.08ZM34.4636 95.08C32.7569 94.44 31.4369 93.8667 30.5036 93.36C29.5969 92.8267 29.1436 92.3467 29.1436 91.92C29.1436 91.5467 29.1836 90.9733 29.2636 90.2C29.3703 89.4 29.4236 88.6267 29.4236 87.88V77.12C29.4236 75.52 29.4769 74.0533 29.5836 72.72C29.7169 71.36 29.8769 70.2667 30.0636 69.44H28.3436L26.1436 66.84L26.4236 66.2H31.6236L33.9836 69.24C33.7969 70.28 33.6503 71.4667 33.5436 72.8C33.4369 74.1067 33.3836 75.44 33.3836 76.8V88.32C33.3836 89.28 33.3436 90.1333 33.2636 90.88C33.1836 91.6 33.1436 92.1467 33.1436 92.52C33.1436 92.7867 33.2369 93 33.4236 93.16C33.6369 93.2933 34.1436 93.5733 34.9436 94L34.4636 95.08ZM45.383 94.72C44.743 94.72 43.9563 94.56 43.023 94.24C42.0896 93.8933 41.1563 93.4533 40.223 92.92C39.3163 92.36 38.5563 91.76 37.943 91.12C37.3296 90.4533 37.023 89.8 37.023 89.16C37.023 88.52 37.063 87.4133 37.143 85.84C37.2496 84.2667 37.303 82.3867 37.303 80.2C37.303 76.7333 39.1963 75 42.983 75C43.5696 75 44.2496 75.1867 45.023 75.56C45.7963 75.9067 46.543 76.3733 47.263 76.96C47.983 77.52 48.583 78.1067 49.063 78.72C49.543 79.3333 49.783 79.9067 49.783 80.44V83.72C49.783 85.88 48.583 86.96 46.183 86.96C45.4363 86.96 44.583 86.92 43.623 86.84C42.663 86.7333 41.8096 86.6133 41.063 86.48C41.0363 87.36 41.0096 88.16 40.983 88.88C40.983 89.5733 40.983 89.9733 40.983 90.08C40.983 90.5067 41.0896 90.8133 41.303 91C41.5163 91.1867 41.903 91.28 42.463 91.28C43.2896 91.28 44.183 91.16 45.143 90.92C46.1296 90.6533 47.0096 90.2667 47.783 89.76H48.383L50.543 93.04C50.0363 93.52 49.2763 93.92 48.263 94.24C47.2763 94.56 46.3163 94.72 45.383 94.72ZM41.183 81.48C41.183 81.6933 41.1696 82.0133 41.143 82.44C41.143 82.8667 41.143 83.3467 41.143 83.88C41.9163 83.96 42.8096 84 43.823 84C44.5963 84 45.1296 83.8133 45.423 83.44C45.743 83.04 45.903 82.44 45.903 81.64V79.48C45.903 79.1867 45.823 78.9333 45.663 78.72C45.503 78.5067 45.1563 78.4 44.623 78.4C43.5563 78.4 42.7163 78.6267 42.103 79.08C41.4896 79.5067 41.183 80.3067 41.183 81.48ZM67.1605 94.68C66.4671 94.68 65.6538 94.5067 64.7205 94.16C63.7871 93.7867 62.8671 93.32 61.9605 92.76C61.0805 92.2 60.3471 91.6267 59.7605 91.04C59.1738 90.4267 58.8805 89.8667 58.8805 89.36C58.8805 88.6667 58.9205 87.6933 59.0005 86.44C59.0805 85.1867 59.1205 83.4667 59.1205 81.28V79.44C59.1205 78.16 59.1738 76.9067 59.2805 75.68C59.3871 74.4533 59.5871 73.48 59.8805 72.76H58.4405L56.4805 70.08L56.7605 69.44H61.8805L64.1205 72.56C63.8271 73.3867 63.5871 74.4 63.4005 75.6C63.2405 76.8 63.1605 78.1467 63.1605 79.64V81.56C63.1605 83.5867 63.1471 85.16 63.1205 86.28C63.0938 87.4 63.0671 88.2267 63.0405 88.76C63.0138 89.2933 63.0005 89.6667 63.0005 89.88C63.0005 90.6533 63.4938 91.04 64.4805 91.04C66.1338 91.04 67.2671 90.6 67.8805 89.72C68.5205 88.84 68.8405 87.3867 68.8405 85.36V79.44C68.8405 78.16 68.8938 76.9067 69.0005 75.68C69.1071 74.4533 69.3071 73.48 69.6005 72.76H68.1605L66.2005 70.08L66.4805 69.44H71.6005L73.8405 72.56C73.5471 73.3867 73.3071 74.4 73.1205 75.6C72.9605 76.8 72.8805 78.1467 72.8805 79.64V88.2C72.8805 92.52 70.9738 94.68 67.1605 94.68ZM86.1905 94.64C85.3105 94.64 84.4838 94.52 83.7105 94.28C82.9638 94.04 82.3105 93.76 81.7505 93.44V96.56C81.7505 97.52 81.7105 98.36 81.6305 99.08C81.5505 99.8267 81.5105 100.387 81.5105 100.76C81.5105 101.027 81.6038 101.227 81.7905 101.36C82.0038 101.52 82.5105 101.813 83.3105 102.24L82.8305 103.32C81.1238 102.68 79.8038 102.093 78.8705 101.56C77.9638 101.053 77.5105 100.587 77.5105 100.16C77.5105 99.7867 77.5505 99.2 77.6305 98.4C77.7371 97.6267 77.7905 96.8667 77.7905 96.12V82.76C77.7905 82.2533 77.8038 81.5867 77.8305 80.76C77.8838 79.9333 77.9771 79.2267 78.1105 78.64H76.6305L74.5505 75.88L74.8305 75.24H78.5905C78.6971 75.24 78.9238 75.4267 79.2705 75.8C79.6171 76.1467 79.9771 76.5467 80.3505 77C80.7505 76.3867 81.3238 75.8933 82.0705 75.52C82.8438 75.1467 83.6705 74.96 84.5505 74.96H85.3105C85.8971 74.96 86.5371 75.2 87.2305 75.68C87.9238 76.1333 88.5771 76.7067 89.1905 77.4C89.8038 78.0667 90.3105 78.7333 90.7105 79.4C91.1105 80.0667 91.3105 80.6133 91.3105 81.04C91.3105 81.7867 91.2971 82.84 91.2705 84.2C91.2438 85.5333 91.2305 87.12 91.2305 88.96C91.2305 90.6933 90.7771 92.08 89.8705 93.12C88.9638 94.1333 87.7371 94.64 86.1905 94.64ZM86.2705 78.68C84.9371 78.68 83.8705 78.88 83.0705 79.28C82.2705 79.6533 81.8305 80.4267 81.7505 81.6C81.7505 81.8933 81.7505 82.1467 81.7505 82.36V91.16C82.2305 91.2667 82.7371 91.32 83.2705 91.32C84.7105 91.32 85.7371 90.9867 86.3505 90.32C86.9638 89.6533 87.2705 88.72 87.2705 87.52C87.2705 86.6667 87.2838 85.7733 87.3105 84.84C87.3371 83.9067 87.3505 83.0267 87.3505 82.2C87.3771 81.3733 87.3905 80.6933 87.3905 80.16C87.3905 79.7867 87.3371 79.4533 87.2305 79.16C87.1238 78.84 86.8038 78.68 86.2705 78.68ZM100.128 95.08C98.421 94.44 97.101 93.8667 96.1677 93.36C95.261 92.8267 94.8077 92.3467 94.8077 91.92C94.8077 91.5467 94.8477 90.9733 94.9277 90.2C95.0343 89.4 95.0877 88.6267 95.0877 87.88V77.12C95.0877 75.52 95.141 74.0533 95.2477 72.72C95.381 71.36 95.541 70.2667 95.7277 69.44H94.0077L91.8077 66.84L92.0877 66.2H97.2877L99.6477 69.24C99.461 70.28 99.3143 71.4667 99.2077 72.8C99.101 74.1067 99.0477 75.44 99.0477 76.8V88.32C99.0477 89.28 99.0077 90.1333 98.9277 90.88C98.8477 91.6 98.8077 92.1467 98.8077 92.52C98.8077 92.7867 98.901 93 99.0877 93.16C99.301 93.2933 99.8077 93.5733 100.608 94L100.128 95.08ZM110.647 94.8C110.007 94.8 109.234 94.64 108.327 94.32C107.42 94 106.54 93.5733 105.687 93.04C104.834 92.5067 104.114 91.8933 103.527 91.2C102.967 90.5067 102.687 89.8 102.687 89.08C102.687 88.76 102.727 87.8267 102.807 86.28C102.914 84.7333 102.967 82.8 102.967 80.48C102.967 78.6133 103.514 77.24 104.607 76.36C105.7 75.48 107.34 75.04 109.527 75.04C110.167 75.04 110.874 75.24 111.647 75.64C112.447 76.04 113.207 76.56 113.927 77.2C114.647 77.84 115.234 78.52 115.687 79.24C116.167 79.9333 116.407 80.5867 116.407 81.2C116.407 82.2133 116.38 83.3067 116.327 84.48C116.3 85.6533 116.287 87.16 116.287 89C116.287 90.7067 115.82 92.1067 114.887 93.2C113.954 94.2667 112.54 94.8 110.647 94.8ZM108.087 91.4C109.554 91.4 110.62 91.0933 111.287 90.48C111.98 89.8667 112.327 88.96 112.327 87.76C112.327 86.9067 112.34 85.9467 112.367 84.88C112.394 83.7867 112.42 82.7867 112.447 81.88C112.474 80.9467 112.487 80.2933 112.487 79.92C112.487 79.4667 112.407 79.1333 112.247 78.92C112.087 78.68 111.767 78.56 111.287 78.56C109.847 78.56 108.74 78.8133 107.967 79.32C107.22 79.8 106.847 80.72 106.847 82.08C106.847 84.64 106.82 86.5733 106.767 87.88C106.714 89.16 106.687 90.0267 106.687 90.48C106.687 91.0933 107.154 91.4 108.087 91.4ZM133.607 94.8C132.967 94.5867 132.38 94.3733 131.847 94.16C131.313 93.92 130.807 93.6667 130.327 93.4C129.953 93.7733 129.5 94.08 128.967 94.32C128.46 94.5333 127.873 94.64 127.207 94.64C126.753 94.64 126.087 94.4933 125.207 94.2C124.353 93.9067 123.473 93.5333 122.567 93.08C121.66 92.6 120.887 92.08 120.247 91.52C119.633 90.9333 119.327 90.36 119.327 89.8C119.327 89.1067 119.327 88.4933 119.327 87.96C119.353 87.4 119.367 87.0667 119.367 86.96C119.367 85.3867 119.767 84.28 120.567 83.64C121.393 82.9733 122.54 82.64 124.007 82.64C124.753 82.64 125.553 82.6933 126.407 82.8C127.26 82.9067 127.953 83.0267 128.487 83.16C128.513 82.4133 128.527 81.7067 128.527 81.04C128.553 80.3467 128.567 79.8267 128.567 79.48C128.567 79.1867 128.487 78.9733 128.327 78.84C128.167 78.7067 127.873 78.64 127.447 78.64C126.407 78.64 125.527 78.72 124.807 78.88C124.087 79.04 123.407 79.3067 122.767 79.68H122.007L119.407 75.88L119.727 75.24H126.407C126.94 75.24 127.54 75.4533 128.207 75.88C128.9 76.28 129.58 76.7867 130.247 77.4C130.913 78.0133 131.46 78.64 131.887 79.28C132.313 79.92 132.527 80.48 132.527 80.96C132.527 81.84 132.5 82.88 132.447 84.08C132.393 85.28 132.34 86.5067 132.287 87.76C132.233 88.9867 132.207 90.1067 132.207 91.12C132.207 91.92 132.34 92.48 132.607 92.8C132.873 93.0933 133.38 93.3867 134.127 93.68L133.607 94.8ZM123.287 89.8C123.287 90.4667 123.407 90.8933 123.647 91.08C123.887 91.24 124.18 91.32 124.527 91.32C125.62 91.32 126.527 91.04 127.247 90.48C127.993 89.8933 128.367 88.9867 128.367 87.76C128.367 87.52 128.367 87.2267 128.367 86.88C128.393 86.5333 128.407 86.1467 128.407 85.72C128.113 85.64 127.753 85.5867 127.327 85.56C126.9 85.5333 126.513 85.52 126.167 85.52C125.207 85.52 124.487 85.7333 124.007 86.16C123.527 86.5867 123.287 87.3333 123.287 88.4V89.8ZM150.77 94.92C150.157 94.7333 149.61 94.5333 149.13 94.32C148.677 94.1067 148.17 93.84 147.61 93.52C147.077 93.9733 146.53 94.3067 145.97 94.52C145.437 94.7067 144.757 94.8 143.93 94.8C143.29 94.8 142.517 94.64 141.61 94.32C140.73 94 139.85 93.5733 138.97 93.04C138.117 92.5067 137.397 91.8933 136.81 91.2C136.25 90.5067 135.97 89.8 135.97 89.08C135.97 88.7867 136.01 87.9467 136.09 86.56C136.17 85.1467 136.21 83.1067 136.21 80.44C136.21 78.5467 136.73 77.1867 137.77 76.36C138.81 75.5333 140.263 75.12 142.13 75.12C142.69 75.12 143.277 75.2267 143.89 75.44C144.53 75.6533 145.103 75.9067 145.61 76.2C145.637 74.7867 145.703 73.4933 145.81 72.32C145.917 71.1467 146.063 70.1867 146.25 69.44H144.53L142.33 66.84L142.61 66.2H147.81L150.17 69.24C149.983 70.28 149.837 71.4667 149.73 72.8C149.623 74.1067 149.57 75.44 149.57 76.8V82.84C149.57 84.1467 149.543 85.4933 149.49 86.88C149.437 88.24 149.423 89.6933 149.45 91.24C149.477 92.04 149.61 92.5867 149.85 92.88C150.09 93.1733 150.597 93.48 151.37 93.8L150.77 94.92ZM139.97 90.16C139.97 90.6133 140.077 90.9333 140.29 91.12C140.53 91.3067 140.89 91.4 141.37 91.4C142.81 91.4 143.877 91.0667 144.57 90.4C145.263 89.7333 145.61 88.8 145.61 87.6V78.8C145.103 78.6933 144.557 78.64 143.97 78.64C142.85 78.64 141.93 78.88 141.21 79.36C140.517 79.84 140.157 80.7467 140.13 82.08L139.97 90.16ZM161.789 94.72C161.149 94.72 160.363 94.56 159.429 94.24C158.496 93.8933 157.563 93.4533 156.629 92.92C155.723 92.36 154.963 91.76 154.349 91.12C153.736 90.4533 153.429 89.8 153.429 89.16C153.429 88.52 153.469 87.4133 153.549 85.84C153.656 84.2667 153.709 82.3867 153.709 80.2C153.709 76.7333 155.603 75 159.389 75C159.976 75 160.656 75.1867 161.429 75.56C162.203 75.9067 162.949 76.3733 163.669 76.96C164.389 77.52 164.989 78.1067 165.469 78.72C165.949 79.3333 166.189 79.9067 166.189 80.44V83.72C166.189 85.88 164.989 86.96 162.589 86.96C161.843 86.96 160.989 86.92 160.029 86.84C159.069 86.7333 158.216 86.6133 157.469 86.48C157.443 87.36 157.416 88.16 157.389 88.88C157.389 89.5733 157.389 89.9733 157.389 90.08C157.389 90.5067 157.496 90.8133 157.709 91C157.923 91.1867 158.309 91.28 158.869 91.28C159.696 91.28 160.589 91.16 161.549 90.92C162.536 90.6533 163.416 90.2667 164.189 89.76H164.789L166.949 93.04C166.443 93.52 165.683 93.92 164.669 94.24C163.683 94.56 162.723 94.72 161.789 94.72ZM157.589 81.48C157.589 81.6933 157.576 82.0133 157.549 82.44C157.549 82.8667 157.549 83.3467 157.549 83.88C158.323 83.96 159.216 84 160.229 84C161.003 84 161.536 83.8133 161.829 83.44C162.149 83.04 162.309 82.44 162.309 81.64V79.48C162.309 79.1867 162.229 78.9333 162.069 78.72C161.909 78.5067 161.563 78.4 161.029 78.4C159.963 78.4 159.123 78.6267 158.509 79.08C157.896 79.5067 157.589 80.3067 157.589 81.48ZM176.531 95.36C174.238 94.6133 172.585 93.9733 171.571 93.44C170.558 92.88 170.051 92.48 170.051 92.24C170.051 91.9467 170.091 91.44 170.171 90.72C170.278 90 170.331 88.88 170.331 87.36V82.4C170.331 81.8667 170.358 81.24 170.411 80.52C170.465 79.7733 170.545 79.1467 170.651 78.64H169.171L167.091 75.88L167.371 75.24H171.131C171.265 75.24 171.505 75.44 171.851 75.84C172.225 76.2133 172.598 76.6267 172.971 77.08C173.398 76.3867 173.985 75.88 174.731 75.56C175.505 75.24 176.318 75.08 177.171 75.08C177.598 75.08 177.918 75.1067 178.131 75.16L180.131 77.96L179.811 78.44C177.945 78.4133 176.558 78.7733 175.651 79.52C174.745 80.2667 174.291 81.64 174.291 83.64V87.92C174.291 89.2533 174.251 90.2933 174.171 91.04C174.118 91.76 174.091 92.24 174.091 92.48C174.091 92.64 174.145 92.7867 174.251 92.92C174.358 93.0267 174.611 93.16 175.011 93.32C175.438 93.48 176.105 93.7467 177.011 94.12L176.531 95.36Z" fill="#60BF81"/>
</svg>
